<?xml version="1.0" standalone="no"?>
<!DOCTYPE svg PUBLIC "-//W3C//DTD SVG 20010904//EN"
 "http://www.w3.org/TR/2001/REC-SVG-20010904/DTD/svg10.dtd">
<svg version="1.0" xmlns="http://www.w3.org/2000/svg"
 width="301.000000pt" height="304.000000pt" viewBox="0 0 301.000000 304.000000"
 preserveAspectRatio="xMidYMid meet">

<g transform="translate(0.000000,304.000000) scale(0.100000,-0.100000)"
fill="#000000" stroke="none">
<path d="M1032 2007 c-22 -23 -22 -27 -22 -386 l0 -362 25 -24 c23 -24 28 -25
175 -25 139 0 151 -1 148 -17 -2 -11 -14 -19 -30 -21 -40 -5 -58 -37 -58 -104
l0 -58 235 0 235 0 0 58 c-1 64 -15 90 -57 101 -15 4 -29 15 -31 24 -3 15 12
17 148 17 147 0 152 1 175 25 l25 24 0 361 0 361 -25 24 -24 25 -449 0 -449 0
-21 -23z m916 -59 c9 -9 12 -86 12 -285 l0 -273 -455 0 -455 0 0 273 c0 199 3
276 12 285 17 17 869 17 886 0z m2 -647 c0 -5 -7 -12 -16 -15 -9 -3 -206 -6
-439 -6 -363 0 -424 2 -435 15 -11 13 39 15 439 15 258 0 451 -4 451 -9z
m-342 -108 c-3 -16 -17 -18 -106 -21 -97 -3 -102 -2 -102 18 0 19 6 20 106 20
95 0 105 -2 102 -17z m82 -103 c0 -6 -68 -10 -185 -10 -117 0 -185 4 -185 10
0 6 68 10 185 10 117 0 185 -4 185 -10z"/>
</g>
</svg>
