<?xml version="1.0" standalone="no"?>
<!DOCTYPE svg PUBLIC "-//W3C//DTD SVG 20010904//EN"
 "http://www.w3.org/TR/2001/REC-SVG-20010904/DTD/svg10.dtd">
<svg version="1.0" xmlns="http://www.w3.org/2000/svg"
 width="328.000000pt" height="299.000000pt" viewBox="0 0 328.000000 299.000000"
 preserveAspectRatio="xMidYMid meet">

<g transform="translate(0.000000,299.000000) scale(0.100000,-0.100000)"
fill="#000000" stroke="none">
<path d="M1904 1885 c-65 -71 -103 -105 -114 -101 -160 53 -228 67 -304 62
l-80 -6 -57 55 c-63 60 -79 67 -79 32 0 -14 22 -44 63 -84 l62 -62 47 10 c26
6 61 9 79 7 31 -3 31 -3 -35 -45 -73 -47 -84 -62 -68 -99 31 -67 132 -83 217
-35 l52 29 171 -171 c95 -95 172 -179 172 -188 0 -9 -8 -23 -18 -32 -17 -16
-21 -14 -62 28 -49 50 -70 57 -70 21 0 -15 16 -38 43 -63 67 -62 70 -68 52
-87 -27 -26 -44 -19 -115 50 -63 60 -90 73 -90 41 0 -7 25 -37 55 -67 59 -58
67 -83 35 -100 -18 -10 -30 -2 -95 61 -49 47 -79 70 -90 66 -15 -6 -89 36 -79
46 10 10 -25 75 -44 81 -11 4 -22 19 -25 36 -7 35 -43 70 -72 70 -13 0 -27 10
-34 24 -27 49 -83 55 -129 13 l-23 -21 -117 117 c-64 64 -123 117 -130 117
-33 0 -2 -45 104 -151 100 -101 113 -117 100 -128 -10 -8 -16 -30 -16 -55 0
-34 6 -48 30 -71 16 -16 30 -34 30 -41 0 -21 39 -62 66 -68 14 -4 41 -22 59
-41 18 -19 42 -35 54 -35 14 0 21 -6 21 -19 0 -24 45 -61 74 -61 12 0 32 7 44
16 22 15 25 15 46 -5 32 -30 86 -28 116 4 22 23 25 24 46 10 33 -21 80 -19
104 5 11 11 20 25 20 30 0 6 11 10 25 10 36 0 75 42 75 81 0 19 10 43 25 61
37 44 33 80 -15 132 -22 24 -40 47 -40 52 0 5 63 72 140 149 127 127 162 175
128 175 -7 0 -79 -66 -160 -147 l-148 -148 -128 128 c-70 70 -130 127 -134
127 -4 0 -31 -14 -60 -31 -60 -36 -119 -41 -149 -13 -25 22 -15 34 68 81 58
32 70 35 118 30 29 -3 72 -15 95 -27 l43 -22 114 114 c109 108 131 144 97 155
-6 2 -56 -44 -110 -102z m-526 -437 c21 -21 13 -41 -35 -90 -53 -53 -62 -57
-87 -29 -22 24 -13 43 44 94 43 39 59 44 78 25z m106 -80 c9 -15 1 -27 -44
-74 -30 -30 -63 -60 -72 -65 -20 -11 -58 4 -58 24 0 6 28 40 63 75 64 64 89
74 111 40z m65 -92 c16 -19 3 -42 -49 -89 -43 -40 -61 -45 -80 -22 -17 21 -5
49 40 89 43 38 70 45 89 22z m75 -108 c9 -15 4 -25 -30 -59 -31 -31 -46 -40
-62 -35 -37 12 -34 36 8 78 41 41 65 46 84 16z m105 -90 c-13 -24 -50 -27 -76
-6 -10 8 -9 15 2 31 8 12 15 30 15 41 0 17 5 15 35 -14 27 -27 32 -37 24 -52z"/>
</g>
</svg>
