<svg version="1.1" id="Layer_1" xmlns="http://www.w3.org/2000/svg" xmlns:xlink="http://www.w3.org/1999/xlink" x="0px" y="0px"
	 width="100%" viewBox="0 0 304 288" enable-background="new 0 0 304 288" xml:space="preserve">
<path fill="#000000" opacity="1.000000" stroke="none" 
	d="
M211.257935,166.000061 
	C211.250153,173.330887 211.323441,180.163055 211.210007,186.992126 
	C211.114258,192.755539 208.706436,195.090622 202.896255,195.185898 
	C197.899521,195.267807 192.898773,195.268555 187.902481,195.169922 
	C182.417374,195.061646 179.760483,192.674088 179.729584,187.299347 
	C179.617538,167.807205 179.621689,148.313782 179.717651,128.821487 
	C179.744583,123.351433 182.214554,121.025322 187.799011,120.860931 
	C192.792816,120.713936 197.796616,120.732719 202.791855,120.852051 
	C208.857239,120.996941 211.173782,123.338463 211.219543,129.513367 
	C211.308441,141.508362 211.253448,153.504425 211.257935,166.000061 
M188.094498,188.601700 
	C192.083679,188.610229 196.088348,188.402252 200.057861,188.686066 
	C204.327133,188.991287 205.972168,187.518784 205.922501,183.069611 
	C205.735123,166.282333 205.762070,149.490707 205.926651,132.702835 
	C205.968063,128.479828 204.304153,127.054794 200.289505,127.343117 
	C197.147476,127.568771 193.959503,127.586823 190.821533,127.332184 
	C186.473465,126.979355 184.925354,128.766357 184.960815,133.071716 
	C185.099075,149.859909 184.998016,166.650024 185.013229,183.439377 
	C185.015015,185.404495 184.769608,187.553696 188.094498,188.601700 
z"/>
<path fill="#000000" opacity="1.000000" stroke="none" 
	d="
M141.181244,141.813293 
	C145.072357,137.056091 165.949036,135.796494 169.879318,139.735672 
	C171.771729,141.632370 172.161270,144.140533 172.167496,146.661957 
	C172.199982,159.808807 172.266449,172.956833 172.124741,186.102325 
	C172.054626,192.607056 169.343903,195.131104 162.938660,195.192093 
	C157.780441,195.241196 152.618759,195.270065 147.463074,195.136337 
	C143.332443,195.029190 140.767883,192.731461 140.757523,188.613953 
	C140.718567,173.147339 140.902924,157.680176 141.181244,141.813293 
M166.807266,150.752701 
	C167.552261,145.682129 165.336380,143.817200 160.328506,144.303177 
	C156.871384,144.638657 153.355499,144.394684 149.866241,144.365570 
	C146.766144,144.339691 145.333130,145.798843 145.343887,148.931366 
	C145.384384,160.729385 145.381546,172.527771 145.327682,184.325714 
	C145.314316,187.252808 146.646912,188.630188 149.517822,188.632645 
	C153.339676,188.635910 157.185318,188.373413 160.977386,188.711472 
	C165.764404,189.138229 166.981583,186.997665 166.886551,182.599503 
	C166.664032,172.301590 166.811371,161.995667 166.807266,150.752701 
z"/>
<path fill="#000000" opacity="1.000000" stroke="none" 
	d="
M109.884857,151.910126 
	C108.292000,153.366165 106.695747,154.283890 105.300499,152.642090 
	C104.154694,151.293823 104.443321,149.462570 105.424835,147.971588 
	C106.058495,147.009003 106.887947,146.164108 107.692688,145.327057 
	C116.338135,136.334488 125.078773,127.431335 133.602020,118.324593 
	C136.271515,115.472343 138.649094,114.781075 141.638199,117.517303 
	C141.881088,117.739647 142.186981,117.892113 142.458084,118.084824 
	C151.629578,124.604088 151.632782,124.607605 159.905762,116.550644 
	C162.400131,114.121391 164.870621,111.667603 167.326981,109.249725 
	C167.063385,108.856270 166.933594,108.440239 166.741440,108.409119 
	C163.964279,107.959358 159.820297,108.962158 160.127625,104.446808 
	C160.420822,100.139511 164.454758,101.724388 166.940948,101.728027 
	C180.127914,101.747307 179.253342,99.690865 179.239273,113.923622 
	C179.237305,115.914795 179.204193,117.918022 178.980225,119.892380 
	C178.845123,121.083374 178.136368,122.109299 176.764145,122.237259 
	C175.075424,122.394714 174.307281,121.223007 174.091339,119.853882 
	C173.761871,117.764755 173.701431,115.633194 173.449234,112.581535 
	C167.146881,118.506836 161.217575,123.736031 155.721695,129.386749 
	C152.744492,132.447815 150.502640,132.387131 147.225403,129.944641 
	C137.738419,122.874054 137.651886,122.978249 129.474594,131.490936 
	C123.022171,138.207962 116.584488,144.939148 109.884857,151.910126 
z"/>
<path fill="#000000" opacity="1.000000" stroke="none" 
	d="
M101.043457,167.238525 
	C101.245079,164.617569 101.372711,162.456161 101.664696,160.317200 
	C102.167984,156.630264 104.361893,154.691696 108.072800,154.665314 
	C113.898361,154.623886 119.725105,154.644562 125.550453,154.714111 
	C129.705658,154.763718 132.007278,156.935104 132.431686,161.077881 
	C133.367050,170.208405 133.238983,179.342850 132.483658,188.474808 
	C132.096466,193.156189 129.290726,195.179001 124.803764,195.197418 
	C119.477112,195.219254 114.149406,195.263046 108.823845,195.183716 
	C104.573151,195.120392 102.034340,193.116898 101.501465,188.657486 
	C100.667694,181.680054 101.282768,174.688248 101.043457,167.238525 
M106.378471,164.152679 
	C106.350433,169.649429 106.304283,175.146179 106.298660,180.642944 
	C106.290459,188.652252 106.302887,188.652267 114.153603,188.639450 
	C127.670753,188.617386 127.670761,188.617386 127.673119,175.182098 
	C127.675560,161.302277 127.675026,161.242523 113.696144,161.365005 
	C111.235466,161.386566 108.220535,160.128601 106.378471,164.152679 
z"/>
</svg>